# xmcd
#
# Track frame offsets: 
#        150
#        19697
#        40555
#        66667
#        91660
#        111200
#        132100
#        154852
#        180802
#        208312
#
# Disc length: 3084 seconds
#
# Revision: 0
# Processed by: cddbd v1.5.2PL0 Copyright (c) Steve Scherf et al.
# Submitted via: ExactAudioCopy v0.99pb5
#
DISCID=7c0c0a0a
DTITLE=Thuy Duong - AsiaCD 080-Khuc Thuy Du
DYEAR=1995
DGENRE=Hai Ngoai
TTITLE0=Khuc Thuy Du (Anh Bang)
TTITLE1=Tro Ve Ben Mo (Ngoc Bich)
TTITLE2=Con Tuoi Nao Cho Em (Trinh Cong Son)
TTITLE3=Bai Khong Ten So 3 (Vu Thanh An)
TTITLE4=Dem Cuoi Cung (Pham Dinh Chuong)
TTITLE5=Chiec La Cuoi Cung (Tuan Khanh)
TTITLE6=Phoi Pha ( Trinh Cong Son)
TTITLE7=Ru Mai Ngan Nam (Trinh Cong Son)
TTITLE8=Sao Van Con Mua Roi (Duc Huy)
TTITLE9=Bien ,Mua Thu, Thuy Duong (Dang Hien)
EXTD=
EXTT0=
EXTT1=
EXTT2=
EXTT3=
EXTT4=
EXTT5=
EXTT6=
EXTT7=
EXTT8=
EXTT9=
PLAYORDER=
